
<svg version="1.0" xmlns="http://www.w3.org/2000/svg"
 width="48.000000pt" height="48.000000pt" viewBox="0 0 48.000000 48.000000"
 preserveAspectRatio="xMidYMid meet">

<g transform="translate(0.000000,48.000000) scale(0.100000,-0.100000)"
fill="#000000" stroke="none">
<path d="M200 461 c-130 -41 -168 -142 -102 -267 35 -64 127 -184 142 -184 15
0 107 120 142 184 40 76 43 135 9 190 -36 57 -131 96 -191 77z m95 -106 c33
-32 33 -78 0 -110 -49 -50 -135 -15 -135 55 0 41 39 80 80 80 19 0 40 -9 55
-25z"/>
</g>
</svg>
